<svg xmlns="http://www.w3.org/2000/svg" viewBox="0 0 32 32"><rect width="32" height="32" rx="6" fill="#0f0e08"/><path d="M10 4 L22 4 C22 4 19.5 12 17.5 14 C16.8 14.8 16 15 16 15 C16 15 15.2 14.8 14.5 14 C12.5 12 10 4 10 4Z" fill="#c9a84c" opacity="0.5"/><path d="M10 4 L22 4 C22 4 19.5 12 17.5 14 C16.8 14.8 16 15 16 15 C16 15 15.2 14.8 14.5 14 C12.5 12 10 4 10 4Z" fill="none" stroke="#c9a84c" stroke-width="1"/><line x1="16" y1="15" x2="16" y2="25" stroke="#c9a84c" stroke-width="1.5" stroke-linecap="round"/><path d="M12 25 Q16 27 20 25" fill="none" stroke="#c9a84c" stroke-width="1.5" stroke-linecap="round"/></svg>